<?xml version="1.0" standalone="no"?>
<!DOCTYPE svg PUBLIC "-//W3C//DTD SVG 20010904//EN"
 "http://www.w3.org/TR/2001/REC-SVG-20010904/DTD/svg10.dtd">
<svg version="1.0" xmlns="http://www.w3.org/2000/svg"
 width="512.000000pt" height="512.000000pt" viewBox="0 0 512.000000 512.000000"
 preserveAspectRatio="xMidYMid meet">
<metadata>
Created by potrace 1.14, written by Peter Selinger 2001-2017
</metadata>
<g transform="translate(0.000000,512.000000) scale(0.100000,-0.100000)"
fill="#000000" stroke="none">
<path d="M3010 4142 c-311 -35 -536 -135 -720 -321 -191 -192 -280 -399 -284
-661 -3 -159 33 -338 91 -452 7 -15 12 -29 11 -31 -2 -1 3 -9 10 -17 7 -8 31
-44 53 -79 135 -214 405 -383 699 -440 90 -17 141 -20 460 -21 168 -1 326 -6
352 -11 100 -22 141 -109 83 -177 -47 -56 -85 -61 -409 -61 -290 0 -353 5
-414 38 -37 20 -55 68 -49 132 l5 57 -56 11 c-32 6 -60 7 -65 2 -15 -15 -15
-134 -1 -182 15 -50 60 -103 110 -131 16 -9 62 -26 102 -37 65 -18 99 -19 384
-18 312 2 313 3 375 28 33 14 75 37 91 50 90 72 108 233 35 319 -29 35 -120
83 -180 96 -21 4 -186 9 -368 10 -241 2 -350 6 -405 17 -89 17 -126 27 -165
41 -11 5 -38 15 -60 23 -52 19 -175 87 -205 113 -12 11 -26 20 -29 20 -13 0
-119 108 -162 165 -70 92 -139 248 -156 354 -10 56 -10 239 -1 301 4 25 14 70
23 100 20 66 94 220 106 220 5 0 9 6 9 14 0 19 113 139 180 191 81 62 189 119
295 154 156 51 203 56 580 56 310 0 366 -3 460 -25 311 -70 541 -240 668 -495
34 -67 71 -175 61 -175 -3 0 0 -8 5 -17 18 -35 28 -228 16 -316 -10 -76 -35
-154 -91 -282 -4 -10 72 -95 85 -95 8 0 64 110 90 175 6 17 20 73 31 125 32
157 19 368 -34 525 -13 40 -76 178 -85 185 -3 3 -13 18 -21 34 -34 66 -161
198 -265 274 -128 95 -362 182 -555 208 -52 7 -638 12 -690 6z"/>
<path d="M447 4013 c-2 -5 -4 -33 -3 -63 l1 -55 638 -3 c602 -2 637 -1 638 15
1 10 2 38 3 63 l1 45 -637 3 c-350 1 -639 -1 -641 -5z"/>
<path d="M3137 3894 c-1 -1 -45 -4 -97 -7 -103 -6 -127 -10 -210 -33 -158 -44
-309 -141 -416 -266 -48 -56 -121 -192 -130 -242 -3 -16 -7 -32 -9 -36 -24
-39 -19 -337 5 -367 2 -2 3 -6 4 -10 22 -98 100 -225 193 -314 131 -127 255
-190 458 -235 17 -4 172 -8 345 -10 361 -3 416 -7 496 -34 180 -62 277 -192
268 -360 -7 -124 -56 -211 -162 -283 -109 -74 -146 -80 -502 -84 -355 -3 -406
3 -525 61 -148 73 -221 189 -217 349 1 26 6 64 12 85 14 51 14 50 -27 67 -76
32 -79 31 -93 -22 -17 -62 -22 -191 -9 -257 22 -118 101 -229 216 -303 63 -41
183 -86 263 -99 61 -10 624 -12 680 -2 120 20 167 36 253 86 197 115 286 350
216 571 -50 159 -212 291 -412 334 -51 11 -146 15 -385 16 -308 2 -338 3 -412
16 -180 30 -383 153 -455 275 -79 134 -98 205 -98 361 1 157 51 282 156 390
118 120 281 199 452 217 77 8 604 7 670 -1 130 -16 246 -58 350 -126 22 -14
45 -31 51 -37 7 -6 25 -21 40 -35 85 -72 160 -204 181 -319 13 -66 7 -243 -10
-300 -9 -30 -18 -64 -21 -75 -4 -15 3 -25 28 -42 64 -40 71 -39 92 14 10 27
19 53 20 58 72 307 1 565 -209 762 -115 108 -281 187 -452 218 -62 12 -587 28
-598 19z"/>
<path d="M445 3746 c-3 -12 -4 -39 -3 -61 l3 -40 634 -3 c375 -1 637 2 640 7
3 5 6 33 6 63 l-1 53 -637 1 -637 1 -5 -21z"/>
<path d="M3019 3636 c-2 -2 -24 -6 -49 -9 -162 -19 -351 -147 -413 -279 -65
-138 -62 -300 7 -443 64 -129 236 -242 417 -271 24 -4 188 -8 364 -9 363 -2
397 -6 535 -51 176 -58 360 -247 396 -404 4 -19 10 -42 12 -50 10 -35 3 -275
-8 -275 -1 0 -3 -9 -4 -20 -9 -65 -79 -184 -148 -254 -108 -109 -309 -200
-453 -205 -25 0 -45 -3 -45 -6 0 -12 -586 0 -655 13 -44 9 -95 18 -100 18 -17
-1 -171 72 -218 103 -102 68 -193 183 -238 301 -42 109 -44 304 -5 414 9 24
16 47 16 51 0 5 -22 22 -50 39 -56 35 -56 35 -84 -50 -36 -111 -46 -207 -32
-337 35 -342 317 -607 711 -668 63 -10 659 -11 740 -2 359 43 647 301 699 628
25 152 5 306 -54 427 -80 166 -251 321 -430 390 -146 57 -202 63 -566 64 -352
1 -415 8 -519 59 -113 56 -184 145 -201 255 -27 169 35 296 186 379 112 61
167 68 495 68 323 0 384 -7 496 -62 80 -38 138 -90 177 -156 42 -72 58 -193
36 -279 -6 -25 -8 -47 -5 -50 4 -2 30 -13 58 -24 l52 -20 11 33 c17 53 20 77
20 146 0 153 -41 259 -136 354 -74 74 -211 149 -299 163 -16 3 -50 9 -75 13
-42 8 -633 14 -641 6z"/>
<path d="M449 3515 c-1 0 -3 -28 -4 -62 -2 -41 1 -63 9 -64 6 0 93 0 192 0
180 0 182 0 185 -22 2 -12 4 -525 3 -1139 0 -789 3 -1118 10 -1119 69 -4 109
-2 114 6 3 5 6 518 6 1140 l1 1130 60 0 60 0 2 -1130 c1 -621 2 -1134 2 -1140
1 -11 107 -12 119 -1 4 4 7 517 7 1139 l0 1132 63 3 62 3 0 -1141 c0 -1006 2
-1140 15 -1141 19 -1 81 -1 100 0 13 1 15 137 17 1139 l3 1137 56 3 c47 2 57
-1 60 -15 3 -10 4 -523 4 -1140 l-1 -1123 20 -1 c81 -4 106 -3 107 6 4 39 3
2388 -1 2394 -3 4 -290 6 -637 6 -348 0 -634 0 -634 0z"/>
<path d="M2991 3374 c-78 -20 -121 -43 -166 -89 -47 -47 -63 -90 -59 -165 6
-136 94 -216 260 -236 33 -4 201 -8 374 -9 173 -2 329 -6 345 -9 17 -4 50 -12
75 -17 332 -72 605 -310 698 -609 30 -96 44 -279 27 -360 -3 -14 -8 -41 -11
-60 -6 -42 -34 -131 -44 -145 -5 -5 -8 -12 -7 -15 0 -3 -8 -23 -18 -45 -57
-122 -194 -272 -321 -351 -66 -41 -191 -99 -234 -109 -8 -2 -45 -11 -81 -19
-36 -9 -95 -19 -130 -22 -80 -8 -605 -8 -679 0 -97 10 -144 17 -152 22 -5 3
-21 8 -36 10 -38 7 -153 49 -204 75 -218 110 -381 291 -453 504 -66 196 -54
446 30 633 l28 63 -43 44 c-24 24 -46 42 -50 40 -15 -9 -79 -153 -98 -220 -28
-96 -35 -144 -37 -254 -2 -112 9 -201 36 -300 21 -76 86 -223 101 -229 4 -2 8
-9 8 -14 0 -19 81 -120 149 -187 145 -142 348 -244 592 -297 73 -17 131 -19
459 -19 206 0 395 3 420 7 175 28 371 107 500 202 79 57 230 212 230 235 0 5
4 11 9 13 12 4 87 144 106 198 47 130 63 230 60 386 -1 77 -6 147 -10 154 -5
7 -9 25 -11 39 -1 14 -3 26 -4 26 -1 0 -3 7 -5 15 -16 74 -76 204 -137 293
-38 56 -134 159 -189 202 -143 114 -350 203 -544 235 -40 7 -215 13 -405 15
-184 2 -346 6 -360 8 -73 13 -109 46 -117 105 -8 57 21 95 93 121 52 20 73 21
362 19 305 -3 307 -3 357 -28 66 -33 96 -88 85 -152 -9 -49 -10 -47 21 -53 94
-19 96 -19 102 11 12 64 0 152 -27 199 -41 69 -102 108 -227 142 -13 4 -157 8
-319 9 -223 1 -308 -2 -349 -12z"/>
</g>
</svg>
